<svg width="100" height="100" viewBox="0 0 100 100" fill="none" xmlns="http://www.w3.org/2000/svg">
<rect width="100" height="100" rx="25" fill="#FC4E2F"/>
<path d="M30.3047 35.5625H34.6797L42.9023 57.4961L51.1055 35.5625H55.4805L44.6211 64H41.1445L30.3047 35.5625ZM28.3125 35.5625H32.4727L33.1953 54.5469V64H28.3125V35.5625ZM53.3125 35.5625H57.4922V64H52.5898V54.5469L53.3125 35.5625ZM70.3398 35.5625V39.4688H57.1172V64H52.2344V35.5625H70.3398ZM55.6328 46.4805H62.7812C64.9427 46.4805 66.7917 46.8451 68.3281 47.5742C69.8646 48.2904 71.0365 49.2995 71.8438 50.6016C72.651 51.9036 73.0547 53.4206 73.0547 55.1523C73.0547 56.4544 72.8268 57.6458 72.3711 58.7266C71.9154 59.8073 71.2448 60.7448 70.3594 61.5391C69.474 62.3203 68.3932 62.9258 67.1172 63.3555C65.8542 63.7852 64.4089 64 62.7812 64H52.2344V35.5625H57.1562V60.1133H62.7812C64.0182 60.1133 65.0339 59.8854 65.8281 59.4297C66.6224 58.9609 67.2083 58.349 67.5859 57.5938C67.9766 56.8385 68.1719 56.0117 68.1719 55.1133C68.1719 54.2409 67.9766 53.4466 67.5859 52.7305C67.2083 52.0143 66.6224 51.4414 65.8281 51.0117C65.0339 50.582 64.0182 50.3672 62.7812 50.3672H55.6328V46.4805Z" fill="#F7EDED"/>
</svg>
